<?xml version="1.0" encoding="utf-8"?>
<!-- Generator: Adobe Illustrator 23.0.4, SVG Export Plug-In . SVG Version: 6.00 Build 0)  -->
<svg version="1.1" id="Layer_1" xmlns="http://www.w3.org/2000/svg" xmlns:xlink="http://www.w3.org/1999/xlink" x="0px" y="0px"
	 viewBox="0 0 218.2 24" style="enable-background:new 0 0 218.2 24;" xml:space="preserve">
<style type="text/css">
	.st0{fill:#1A75D2;}
	.st1{opacity:0.6;fill:#1A75D2;enable-background:new    ;}
</style>
<g>
	<g id="그룹_1" transform="translate(33 0.31)">
		<path id="패스_2316" class="st0" d="M0,0.3C0,0.2,0.1,0,0.3,0c0,0,0,0,0,0h3.8c0.2,0,0.3,0.1,0.3,0.3c0,0,0,0,0,0v18.8
			c0,0.1,0.1,0.2,0.2,0.2c0,0,0,0,0.1,0h5.9c0.2,0,0.3,0.1,0.3,0.3c0,0,0,0,0,0V23c0,0.2-0.1,0.3-0.3,0.3c0,0,0,0,0,0H0.3
			c-0.2,0-0.3-0.1-0.3-0.3c0,0,0,0,0,0V0.3z"/>
		<path id="패스_2317" class="st0" d="M13.2,0.3c0-0.2,0.1-0.3,0.3-0.3c0,0,0,0,0,0h10.2c0.2,0,0.3,0.1,0.3,0.3c0,0,0,0,0,0v3.4
			c0,0.2-0.1,0.3-0.3,0.3c0,0,0,0,0,0h-5.8c-0.1,0-0.2,0.1-0.2,0.2c0,0,0,0,0,0.1v5.1c0,0.1,0.1,0.2,0.2,0.2c0,0,0,0,0.1,0H23
			c0.2,0,0.3,0.1,0.3,0.3c0,0,0,0,0,0v3.4c0,0.2-0.1,0.3-0.3,0.3c0,0,0,0,0,0h-5.1c-0.1,0-0.2,0.1-0.2,0.2c0,0,0,0,0,0.1v5.3
			c0,0.1,0.1,0.2,0.2,0.2c0,0,0,0,0.1,0h5.8c0.2,0,0.3,0.1,0.3,0.3c0,0,0,0,0,0V23c0,0.2-0.1,0.3-0.3,0.3c0,0,0,0,0,0H13.6
			c-0.2,0-0.3-0.1-0.3-0.3c0,0,0,0,0,0V0.3z"/>
		<path id="패스_2318" class="st0" d="M30.5,0.3C30.5,0.1,30.6,0,30.8,0h4.1c0.2,0,0.4,0.1,0.4,0.3l5,22.7c0,0.1,0,0.3-0.2,0.3
			c0,0-0.1,0-0.1,0h-3.8c-0.2,0-0.4-0.1-0.4-0.3c0,0,0,0,0,0l-0.8-4.2h-4.4L29.8,23c0,0.2-0.2,0.3-0.4,0.3c0,0,0,0,0,0h-3.8
			c-0.1,0-0.3-0.1-0.3-0.2c0,0,0-0.1,0-0.1L30.5,0.3z M34.4,15.2l-1.5-8.1h-0.1l-1.5,8.1H34.4z"/>
		<path id="패스_2319" class="st0" d="M42.2,0.3c0-0.2,0.1-0.3,0.3-0.3c0,0,0,0,0,0h5.9c3.2,0,5.1,1.2,6,3.9
			c0.4,1.3,0.6,2.9,0.6,7.8s-0.2,6.5-0.6,7.8c-0.9,2.6-2.8,3.9-6,3.9h-5.9c-0.2,0-0.3-0.1-0.3-0.3c0,0,0,0,0,0L42.2,0.3z M46.9,19.3
			H48c1,0.1,1.9-0.5,2.1-1.4c0.3-0.7,0.4-1.7,0.4-6.2s-0.1-5.5-0.4-6.2C49.9,4.6,49,3.9,48,4.1h-1.1c-0.1,0-0.2,0.1-0.2,0.2
			c0,0,0,0,0,0.1v14.9C46.7,19.2,46.7,19.3,46.9,19.3C46.9,19.3,46.9,19.3,46.9,19.3L46.9,19.3z"/>
		<path id="패스_2320" class="st0" d="M57.9,0.3C57.8,0.2,58,0,58.2,0c0,0,0,0,0,0h10.2c0.2,0,0.3,0.1,0.3,0.3c0,0,0,0,0,0v3.4
			c0,0.2-0.1,0.3-0.3,0.3c0,0,0,0,0,0h-5.8c-0.1,0-0.2,0.1-0.2,0.2c0,0,0,0,0,0.1v5.1c0,0.1,0.1,0.2,0.2,0.2c0,0,0,0,0.1,0h5.1
			c0.2,0,0.3,0.1,0.3,0.3c0,0,0,0,0,0v3.4c0,0.2-0.1,0.3-0.3,0.3c0,0,0,0,0,0h-5.1c-0.1,0-0.2,0.1-0.2,0.2c0,0,0,0,0,0.1v5.3
			c0,0.1,0.1,0.2,0.2,0.2c0,0,0,0,0.1,0h5.8c0.2,0,0.3,0.1,0.3,0.3c0,0,0,0,0,0V23c0,0.2-0.1,0.3-0.3,0.3c0,0,0,0,0,0H58.2
			c-0.2,0-0.3-0.1-0.3-0.3c0,0,0,0,0,0L57.9,0.3z"/>
		<path id="패스_2321" class="st0" d="M80.3,23.4c-0.2,0-0.3-0.1-0.4-0.3l-2.6-8.9H76c-0.1,0-0.2,0.1-0.2,0.2c0,0,0,0,0,0.1V23
			c0,0.2-0.1,0.3-0.3,0.3c0,0,0,0,0,0h-3.8c-0.2,0-0.3-0.1-0.3-0.3c0,0,0,0,0,0V0.3c0-0.2,0.1-0.3,0.3-0.3c0,0,0,0,0,0h5.6
			C81.3,0,84,2,84,7.2c0,3-1,4.9-2.6,6l3.2,9.9c0.1,0.2,0,0.3-0.2,0.3L80.3,23.4z M79.5,7.2C79.5,4.7,78.7,4,77,4h-1
			c-0.1,0-0.2,0.1-0.2,0.2c0,0,0,0,0,0.1v6c0,0.1,0.1,0.2,0.2,0.2c0,0,0,0,0.1,0h1C78.7,10.3,79.5,9.6,79.5,7.2L79.5,7.2z"/>
	</g>
	<g id="그룹_2" transform="translate(122.801)">
		<path id="패스_2322" class="st0" d="M6.3,24c-4.2,0-6.3-2.2-6.3-6.3c0-0.2,0.1-0.3,0.3-0.4L4,16.8c0.2,0,0.4,0.1,0.4,0.3
			c0.1,2.2,0.7,3,2,3c1.3,0,1.9-0.7,1.9-2.8c0-2.1-0.4-2.8-2.2-3.5l-1.4-0.5c-3.3-1.3-4.4-3-4.4-6.8c0-4.2,2-6.5,6.2-6.5
			c4.1,0,6,2.1,6.2,5.8c0,0.2-0.1,0.4-0.3,0.4L8.8,6.7c-0.2,0-0.4-0.1-0.4-0.3c0-1.7-0.6-2.5-1.9-2.5c-1.2,0-1.8,0.8-1.8,2.3
			c0,1.8,0.4,2.3,2.2,3l1.4,0.5c3.2,1.2,4.4,3,4.4,6.9C12.8,21.5,11,24,6.3,24z"/>
		<path id="패스_2323" class="st0" d="M19,0.7c0.1-0.2,0.2-0.3,0.4-0.3h4.1c0.2,0,0.4,0.1,0.4,0.3l5,22.7c0,0.1,0,0.3-0.2,0.3
			c0,0-0.1,0-0.1,0h-3.8c-0.2,0-0.4-0.1-0.4-0.3c0,0,0,0,0,0l-0.8-4.2h-4.4l-0.8,4.2c0,0.2-0.2,0.3-0.4,0.3c0,0,0,0,0,0h-3.8
			c-0.1,0-0.3-0.1-0.3-0.2c0,0,0-0.1,0-0.1L19,0.7z M22.9,15.5l-1.5-8.1h-0.1l-1.5,8.1H22.9z"/>
		<path id="패스_2324" class="st0" d="M31,23.7c-0.2,0-0.3-0.1-0.3-0.3c0,0,0,0,0,0V0.7c0-0.2,0.1-0.3,0.3-0.3c0,0,0,0,0,0h5.5
			c4.3,0,6.9,2,6.9,7.4c0,5.3-2.7,7.4-6.9,7.4h-1.1c-0.1,0-0.2,0.1-0.2,0.2c0,0,0,0,0,0.1v8.1c0,0.2-0.1,0.3-0.3,0.3c0,0,0,0,0,0
			L31,23.7z M38.9,7.7c0-2.6-0.8-3.4-2.5-3.4h-1c-0.1,0-0.2,0.1-0.2,0.2c0,0,0,0,0,0.1v6.4c0,0.1,0.1,0.2,0.2,0.2c0,0,0,0,0.1,0h1
			C38.2,11.1,38.9,10.3,38.9,7.7L38.9,7.7z"/>
		<path id="패스_2325" class="st0" d="M45.9,0.7c0-0.2,0.1-0.3,0.3-0.3c0,0,0,0,0,0h3.8c0.2,0,0.3,0.1,0.3,0.3c0,0,0,0,0,0v22.7
			c0,0.2-0.1,0.3-0.3,0.3c0,0,0,0,0,0h-3.8c-0.2,0-0.3-0.1-0.3-0.3c0,0,0,0,0,0V0.7z"/>
		<path id="패스_2326" class="st0" d="M53.6,0.7c0-0.2,0.1-0.3,0.3-0.3c0,0,0,0,0,0h10.2c0.2,0,0.3,0.1,0.3,0.3c0,0,0,0,0,0V4
			c0,0.2-0.1,0.3-0.3,0.3c0,0,0,0,0,0h-5.8c-0.1,0-0.2,0.1-0.2,0.2c0,0,0,0,0,0.1v5.1c0,0.1,0.1,0.2,0.2,0.2c0,0,0,0,0.1,0h5.1
			c0.2,0,0.3,0.1,0.3,0.3c0,0,0,0,0,0v3.4c0,0.2-0.1,0.3-0.3,0.3c0,0,0,0,0,0h-5.1c-0.1,0-0.2,0.1-0.2,0.2c0,0,0,0,0,0.1v5.3
			c0,0.1,0.1,0.2,0.2,0.2c0,0,0,0,0.1,0h5.8c0.2,0,0.3,0.1,0.3,0.3c0,0,0,0,0,0v3.4c0,0.2-0.1,0.3-0.3,0.3c0,0,0,0,0,0H53.9
			c-0.2,0-0.3-0.1-0.3-0.3c0,0,0,0,0,0V0.7z"/>
		<path id="패스_2327" class="st0" d="M67,0.7c0-0.2,0.1-0.3,0.3-0.3c0,0,0,0,0,0h4.3c0.2,0,0.4,0.1,0.5,0.3L76,15.3h0.2V0.7
			c0-0.2,0.1-0.3,0.3-0.3c0,0,0,0,0,0h3.3c0.2,0,0.3,0.1,0.3,0.3c0,0,0,0,0,0v22.7c0,0.2-0.1,0.3-0.3,0.3c0,0,0,0,0,0h-4.1
			c-0.2,0-0.4-0.1-0.5-0.3L71.1,8.7H71v14.7c0,0.2-0.1,0.3-0.3,0.3c0,0,0,0,0,0h-3.3c-0.2,0-0.3-0.1-0.3-0.3c0,0,0,0,0,0L67,0.7z"/>
		<path id="패스_2328" class="st0" d="M88.9,24c-4.2,0-6.3-2.2-6.3-6.3c0-0.2,0.1-0.3,0.3-0.4l3.7-0.6c0.2,0,0.4,0.1,0.4,0.3
			c0.1,2.2,0.7,3,2,3c1.3,0,1.9-0.7,1.9-2.8c0-2.1-0.4-2.8-2.2-3.5l-1.4-0.5c-3.3-1.3-4.4-3-4.4-6.8c0-4.2,2-6.5,6.2-6.5
			c4.1,0,6,2.1,6.2,5.8c0,0.2-0.1,0.4-0.3,0.4l-3.5,0.5c-0.2,0-0.4-0.1-0.4-0.3c0-1.7-0.6-2.5-1.9-2.5c-1.2,0-1.8,0.8-1.8,2.3
			c0,1.8,0.4,2.3,2.2,3L91,9.8c3.2,1.2,4.4,3,4.4,6.9C95.4,21.5,93.6,24,88.9,24z"/>
	</g>
	<path id="사각형_5" class="st1" d="M1,0h10c0.6,0,1,0.4,1,1v22c0,0.6-0.4,1-1,1H1c-0.6,0-1-0.4-1-1V1C0,0.4,0.4,0,1,0z"/>
	<path id="사각형_6" class="st1" d="M24,13v10c0,0.6-0.4,1-1,1H1c-0.6,0-1-0.4-1-1V13c0-0.6,0.4-1,1-1h22C23.6,12,24,12.4,24,13z
		"/>
</g>
</svg>
